<mxfile host="www.draw.io" modified="2019-10-25T03:02:14.710Z" agent="Mozilla/5.0 (Windows NT 6.1; Win64; x64) AppleWebKit/537.36 (KHTML, like Gecko) Chrome/77.0.3865.120 Safari/537.36" etag="_Jrei9Codj6bSL2fp_l-" version="12.1.5" type="github" pages="1">
  <diagram id="UOzD4N3eyY4db2SnFhZ8" name="Page-1">
    <mxGraphModel dx="1038" dy="500" grid="1" gridSize="10" guides="1" tooltips="1" connect="1" arrows="1" fold="1" page="1" pageScale="1" pageWidth="850" pageHeight="1100" math="0" shadow="0">
      <root>
        <mxCell id="0"/>
        <mxCell id="1" parent="0"/>
        <mxCell id="Ur7TswTjiC4Jq3S4hagu-1" value="LB Apps&lt;br&gt;(LB Client)" style="shape=umlActor;verticalLabelPosition=bottom;labelBackgroundColor=#ffffff;verticalAlign=top;html=1;outlineConnect=0;" parent="1" vertex="1">
          <mxGeometry x="70" y="110" width="30" height="60" as="geometry"/>
        </mxCell>
        <mxCell id="Ur7TswTjiC4Jq3S4hagu-4" value="POEMS GATEWAY" style="rounded=1;whiteSpace=wrap;html=1;" parent="1" vertex="1">
          <mxGeometry x="270" y="100" width="120" height="80" as="geometry"/>
        </mxCell>
        <mxCell id="wVM4E26sl-JtEafnIeuh-1" value="" style="endArrow=classic;html=1;exitX=0.5;exitY=0.5;exitDx=0;exitDy=0;exitPerimeter=0;entryX=0;entryY=0.5;entryDx=0;entryDy=0;" edge="1" parent="1" source="Ur7TswTjiC4Jq3S4hagu-1" target="Ur7TswTjiC4Jq3S4hagu-4">
          <mxGeometry width="50" height="50" relative="1" as="geometry">
            <mxPoint x="160" y="180" as="sourcePoint"/>
            <mxPoint x="210" y="130" as="targetPoint"/>
          </mxGeometry>
        </mxCell>
        <mxCell id="wVM4E26sl-JtEafnIeuh-2" value="0" style="text;html=1;resizable=0;points=[];align=center;verticalAlign=middle;labelBackgroundColor=#ffffff;" vertex="1" connectable="0" parent="wVM4E26sl-JtEafnIeuh-1">
          <mxGeometry x="0.2386" y="-4" relative="1" as="geometry">
            <mxPoint as="offset"/>
          </mxGeometry>
        </mxCell>
        <mxCell id="wVM4E26sl-JtEafnIeuh-3" value="PSPL T+0 Account Opening Processing" style="rounded=1;whiteSpace=wrap;html=1;" vertex="1" parent="1">
          <mxGeometry x="520" y="50" width="210" height="180" as="geometry"/>
        </mxCell>
        <mxCell id="wVM4E26sl-JtEafnIeuh-4" value="" style="endArrow=classic;html=1;exitX=1;exitY=0.5;exitDx=0;exitDy=0;entryX=0;entryY=0.5;entryDx=0;entryDy=0;" edge="1" parent="1" source="Ur7TswTjiC4Jq3S4hagu-4" target="wVM4E26sl-JtEafnIeuh-3">
          <mxGeometry width="50" height="50" relative="1" as="geometry">
            <mxPoint x="340" y="140" as="sourcePoint"/>
            <mxPoint x="485" y="140" as="targetPoint"/>
          </mxGeometry>
        </mxCell>
        <mxCell id="wVM4E26sl-JtEafnIeuh-5" value="1" style="text;html=1;resizable=0;points=[];align=center;verticalAlign=middle;labelBackgroundColor=#ffffff;" vertex="1" connectable="0" parent="wVM4E26sl-JtEafnIeuh-4">
          <mxGeometry x="0.2386" y="-4" relative="1" as="geometry">
            <mxPoint as="offset"/>
          </mxGeometry>
        </mxCell>
        <mxCell id="wVM4E26sl-JtEafnIeuh-6" value="" style="endArrow=classic;html=1;" edge="1" parent="1">
          <mxGeometry width="50" height="50" relative="1" as="geometry">
            <mxPoint x="520" y="170" as="sourcePoint"/>
            <mxPoint x="390" y="170" as="targetPoint"/>
          </mxGeometry>
        </mxCell>
        <mxCell id="wVM4E26sl-JtEafnIeuh-8" value="2" style="text;html=1;resizable=0;points=[];align=center;verticalAlign=middle;labelBackgroundColor=#ffffff;" vertex="1" connectable="0" parent="wVM4E26sl-JtEafnIeuh-6">
          <mxGeometry x="0.3229" y="1" relative="1" as="geometry">
            <mxPoint as="offset"/>
          </mxGeometry>
        </mxCell>
        <mxCell id="wVM4E26sl-JtEafnIeuh-9" value="" style="endArrow=classic;html=1;" edge="1" parent="1">
          <mxGeometry width="50" height="50" relative="1" as="geometry">
            <mxPoint x="270" y="169" as="sourcePoint"/>
            <mxPoint x="100" y="169" as="targetPoint"/>
          </mxGeometry>
        </mxCell>
        <mxCell id="wVM4E26sl-JtEafnIeuh-10" value="3" style="text;html=1;resizable=0;points=[];align=center;verticalAlign=middle;labelBackgroundColor=#ffffff;" vertex="1" connectable="0" parent="wVM4E26sl-JtEafnIeuh-9">
          <mxGeometry x="0.3229" y="1" relative="1" as="geometry">
            <mxPoint as="offset"/>
          </mxGeometry>
        </mxCell>
      </root>
    </mxGraphModel>
  </diagram>
</mxfile>
